<?xml version="1.0" encoding="UTF-8" standalone="no"?>
<!-- Generator: Adobe Illustrator 12.0.1, SVG Export Plug-In . SVG Version: 6.00 Build 51448)  -->

<svg
   xmlns:dc="http://purl.org/dc/elements/1.1/"
   xmlns:cc="http://creativecommons.org/ns#"
   xmlns:rdf="http://www.w3.org/1999/02/22-rdf-syntax-ns#"
   xmlns:svg="http://www.w3.org/2000/svg"
   xmlns="http://www.w3.org/2000/svg"
   xmlns:sodipodi="http://sodipodi.sourceforge.net/DTD/sodipodi-0.dtd"
   xmlns:inkscape="http://www.inkscape.org/namespaces/inkscape"
   id="Layer_1"
   xml:space="preserve"
   overflow="visible"
   viewBox="0 0 494.367 252.55"
   version="1.1"
   enable-background="new 0 0 494.367 252.55"
   inkscape:version="0.91+devel r"
   sodipodi:docname="johnny_automatic_pointing_hand.svg"><defs
     id="defs7666" /><sodipodi:namedview
     pagecolor="#ffffff"
     bordercolor="#666666"
     borderopacity="1"
     objecttolerance="10"
     gridtolerance="10"
     guidetolerance="10"
     inkscape:pageopacity="0"
     inkscape:pageshadow="2"
     inkscape:window-width="1627"
     inkscape:window-height="1026"
     id="namedview7664"
     showgrid="false"
     inkscape:zoom="0.6998849"
     inkscape:cx="335.7695"
     inkscape:cy="110.55813"
     inkscape:window-x="53"
     inkscape:window-y="24"
     inkscape:window-maximized="1"
     inkscape:current-layer="Layer_1" /><metadata
     id="metadata7662"><rdf:RDF><cc:Work><dc:format>image/svg+xml</dc:format><dc:type
           rdf:resource="http://purl.org/dc/dcmitype/StillImage" /><cc:license
           rdf:resource="http://creativecommons.org/licenses/publicdomain/" /><dc:publisher><cc:Agent
             rdf:about="http://openclipart.org/"><dc:title>Openclipart</dc:title></cc:Agent></dc:publisher><dc:title>pointing hand</dc:title><dc:date>2006-10-29T20:37:08</dc:date><dc:description>an old etching of a hand with a pointing finger</dc:description><dc:source>https://openclipart.org/detail/1006/pointing-hand-by-johnny_automatic</dc:source><dc:creator><cc:Agent><dc:title>johnny_automatic</dc:title></cc:Agent></dc:creator><dc:subject><rdf:Bag><rdf:li>anatomy</rdf:li><rdf:li>finger</rdf:li><rdf:li>hand</rdf:li><rdf:li>pointer</rdf:li><rdf:li>pointing</rdf:li></rdf:Bag></dc:subject></cc:Work><cc:License
         rdf:about="http://creativecommons.org/licenses/publicdomain/"><cc:permits
           rdf:resource="http://creativecommons.org/ns#Reproduction" /><cc:permits
           rdf:resource="http://creativecommons.org/ns#Distribution" /><cc:permits
           rdf:resource="http://creativecommons.org/ns#DerivativeWorks" /></cc:License></rdf:RDF></metadata><path
     id="path16405"
     style="clip-rule:evenodd;fill:#ff0000;fill-opacity:1;fill-rule:evenodd"
     d="m 167.24361,215.58335 c -4.02335,-2.70316 4.04509,-8.2705 6.79543,-6.24923 -4.18617,5.67627 -9.02014,10.64948 -17.63091,11.51386 2.9865,-2.4359 5.41851,-5.46485 10.83622,-5.25853 z m 7.20326,-16.02691 c -0.0194,2.83999 -3.99488,8.71047 -9.34154,8.59341 2.34339,-3.71924 6.41289,-5.54133 9.34681,-8.59814 z m 99.09229,-26.0881 c -2.19956,3.00592 -3.80786,6.6537 -6.89653,8.69431 1.46335,-3.80474 3.2184,-7.29347 6.89761,-8.69029 z M 12.211793,153.57964 c -5.400274,-8.8776 -4.060037,-20.98578 -4.4481976,-30.4031 2.2006276,11.77917 5.0063646,19.63902 5.9766996,32.91677 l -2.445725,-0.10119 c 2.945154,0.95015 2.730366,4.80618 2.920201,8.28918 -3.829473,-0.35506 -4.5994962,-9.32687 -2.004018,-10.69051 z M 154.88919,120.33155 c -8.64003,14.09684 -13.8686,26.84355 -27.61865,35.59841 -0.63519,-2.89283 3.43742,-5.06099 6.04669,-7.91435 2.94335,-3.21641 6.73964,-7.33309 9.44353,-11.03928 4.17441,-5.74265 5.80226,-13.95633 12.11575,-16.64635 z m 54.79045,-21.391342 c -1.89593,7.886422 -4.95702,21.879442 -12.53526,26.427282 4.15626,-8.84412 8.13403,-17.87212 12.53366,-26.431392 z m 13.05024,-77.862824 c -0.13993,3.546217 -4.86677,2.097623 -5.91053,4.654503 -1.85517,-2.355523 4.09895,-3.469248 5.9147,-4.65455 z m -25.33916,0.576648 c -18.3303,7.221407 -39.38295,32.005303 -48.64672,50.239371 -1.64421,3.233283 -1.13499,8.333199 -6.08066,8.729431 C 153.09468,58.157259 166.03516,38.418187 184.99142,25.219633 157.2375,37.379068 148.5332,70.243124 131.48601,94.039808 141.35779,68.1256 154.51283,45.779442 172.59312,28.786272 139.03271,49.973081 129.32274,104.47125 104.34313,137.8277 c 11.1443,-5.21616 15.3987,-25.303 26.70144,-33.18753 -7.82308,11.66609 -14.09924,25.01187 -23.5089,34.95364 4.18702,0.27705 7.44435,-7.80619 11.07555,-10.97119 -0.7332,5.74681 -7.24966,12.56824 -10.56648,18.34262 11.8952,-8.37598 17.55616,-23.52915 28.33256,-33.11851 -6.64672,14.64804 -17.35282,24.88289 -26.05694,37.29735 6.80582,-5.66928 12.68129,-12.34959 17.97117,-19.66853 -1.15499,7.84089 -9.45026,15.28965 -14.77721,21.43445 11.08724,-6.1518 20.19032,-21.78275 28.3658,-33.93556 2.76675,2.25656 -2.53631,8.69562 -5.33407,10.39526 -3.63805,10.53274 -11.6139,16.35232 -17.35919,24.59337 6.1519,-0.6992 6.87666,-7.298 11.8214,-9.30736 -0.11258,-2.39557 1.948,-2.42881 1.83598,-4.82362 7.19229,-4.68064 8.51702,-15.7396 16.34014,-19.73571 -7.94445,14.15145 -15.65122,24.41239 -25.17364,35.7006 l -6.52164,-0.27138 c 18.33438,5.78255 38.69254,1.38326 53.29899,-5.12729 -0.49468,-0.85156 -1.83986,-0.92059 -1.52963,-2.51409 5.44305,-5.9293 12.08926,-12.46064 16.37433,-20.55059 3.54558,-6.69217 3.74562,-16.63925 11.44956,-19.93962 -6.75695,13.10783 -12.18951,27.6575 -21.19913,38.31737 7.76109,-3.77883 10.18008,-13.36451 17.08703,-18.07177 -3.38443,10.24015 -10.93763,15.9497 -16.50932,23.81239 7.39046,-4.18575 14.28882,-16.28287 20.62114,-24.45721 2.27283,3.40472 -3.81044,7.6044 -6.18286,11.1753 -3.16159,4.75649 -4.92649,10.69983 -9.51156,12.67004 8.59902,-3.15518 14.61933,-16.4899 20.65492,-25.272 0.92896,7.41733 -9.07707,17.28813 -14.06413,23.91423 9.42089,-2.26107 12.47427,-18.82235 20.65489,-25.27218 2.22647,1.92988 -1.53128,4.52912 -1.90212,6.45469 3.39838,-0.57017 2.45873,-5.84955 5.97975,-6.2846 2.2152,2.65934 -2.12603,3.35839 -1.90379,6.45452 5.30949,-4.17042 8.84809,-10.26642 10.56438,-18.3438 -4.26503,2.1804 -2.97416,10.40141 -8.62659,11.0744 3.51434,-7.82595 6.34289,-16.39869 10.76875,-23.23465 0.46663,4.2118 -1.94024,5.27758 -2.00614,8.89959 3.85092,-1.21272 2.28295,-8.31484 6.89779,-8.69558 1.92581,2.19616 -1.88572,2.95722 -1.86895,5.63869 1.29533,1.89858 3.16918,-2.7477 3.46487,-4.75568 4.27017,2.07375 2.25358,-1.826962 6.59056,-1.35806 -0.30966,3.64111 -2.31656,5.43539 -4.38279,7.16742 1.92251,0.63844 5.78199,-3.91924 6.82881,-7.06549 -5.71565,-3.365512 -17.96453,-0.723592 -19.25976,-8.153768 4.33401,2.374856 11.46331,4.260816 15.31896,4.721816 -3.87824,-4.010996 -12.94618,-3.24708 -15.14895,-8.798589 9.99326,2.667842 27.4019,8.765119 37.16162,9.716979 -1.70452,-3.02683 -5.3746,-1.20952 -7.23551,-2.75206 2.74109,-3.024406 5.85485,0.28321 8.96927,0.37445 5.09915,0.14987 10.06692,-2.94981 15.66018,-3.429865 9.41236,-0.809216 20.4532,2.150335 29.55319,-3.667956 -1.81679,-1.599692 -3.49407,-1.513606 -6.55674,0.542412 0.12955,-4.281669 5.12054,-10.223736 9.51052,-12.67032 -1.2122,3.793958 -3.99649,5.882499 -5.29772,9.579388 1.79953,-0.341343 7.58563,-3.667243 6.93073,-9.511302 1.71856,-0.27611 2.13347,0.649213 3.22454,0.950378 1.50349,-4.04864 -0.4028,-11.80135 3.80611,-12.908177 0.75706,4.788343 0.49434,10.521686 0.9856,15.558907 2.81994,-2.049501 1.63567,-8.448794 4.51873,-10.42832 2.17132,-0.171147 -0.95228,4.53485 2.30777,3.362788 -2.56208,1.346374 -2.53296,2.266068 -1.86791,5.638726 1.6656,1.747485 6.11701,-5.222116 8.28857,-2.920497 -1.16228,3.848985 -6.62377,3.024934 -8.42449,6.181588 2.61824,2.271696 6.64287,-4.898835 9.10534,-2.887637 -1.71747,4.384117 -6.66277,5.256015 -9.34333,8.59411 3.75475,1.373756 9.07611,-6.98341 13.2811,-5.162598 -2.45145,3.866861 -6.27618,6.243795 -10.93749,7.710455 0.67035,1.474978 3.26566,1.178116 2.27491,4.1796 13.72443,3.52589 35.36648,13.633472 49.62874,4.52024 11.31548,2.332212 23.22892,-5.749472 20.38309,-18.75064 -0.5984,19.96335 -23.2271,19.06762 -37.97693,9.850056 -2.74557,-2.17903 -2.6901,-6.936752 -7.03229,-7.643744 -0.54588,-8.181516 4.09923,-13.755345 10.49639,-16.712806 7.31095,2.944414 18.05654,2.72741 25.92022,5.165012 C 382.71333,64.9908 370.44346,64.092371 363.06023,63.683279 359.17801,59.415882 353.09892,57.16744 347.9463,54.068761 316.03002,45.391103 269.24524,44.387489 236.01718,35.5167 c -2.43721,0.608134 1.84068,1.299668 0.67689,3.296588 -9.07636,3.770078 -13.53083,12.563236 -21.16379,17.901566 5.24775,-7.931093 10.68115,-15.659178 19.60016,-19.599549 -1.64441,-3.668383 -5.79016,-0.832184 -4.96082,1.426278 -8.42594,4.190519 -13.3956,12.139012 -21.12795,17.086633 4.12665,-8.013164 10.49021,-13.595969 17.90314,-18.037768 -0.68983,-1.455402 -2.47467,-1.905628 -4.82272,-1.835752 0.30447,1.293522 2.53428,0.804622 1.49449,3.329589 -11.18012,4.324126 -16.20962,15.333529 -25.41084,21.808414 5.86212,-8.969264 13.30295,-16.221071 21.36803,-22.793448 -11.18425,3.469154 -19.55809,17.372954 -29.6225,24.898263 4.82667,-9.526392 12.50858,-15.948046 19.73807,-22.860351 -12.3086,4.799788 -17.11522,17.75642 -27.95757,24.151173 5.8837,-9.228301 13.80999,-16.237098 21.40179,-23.608234 -10.78195,5.8929 -18.23752,15.40085 -26.32742,24.219157 1.98149,-8.359705 12.44693,-14.873226 18.07291,-22.113307 -11.49724,5.114233 -17.61047,16.082452 -26.32763,24.219161 9.47184,-17.829088 25.09161,-33.515972 42.49881,-39.878009 -3.77098,4.707361 -10.74262,5.935639 -14.33606,10.834948 7.78879,-2.049353 17.25296,-9.648747 27.44837,-11.920921 -1.56521,3.695758 -6.52088,3.70682 -8.45946,6.996602 12.65406,-2.621698 35.78989,-1.929741 48.84969,3.67136 2.46279,-0.444411 -0.70047,-1.777079 0.13663,-3.260989 2.51646,-0.494148 2.33936,1.506178 4.85676,1.018365 -0.35269,-2.808351 -2.56851,-3.908364 -2.14027,-7.439405 3.45417,1.262885 5.20515,4.096815 8.76267,5.264672 0.12384,-4.559428 -3.79429,-5.393126 -3.66172,-9.954586 6.42454,2.714079 7.57779,10.276358 13.31396,13.622117 4.24389,-1.721291 0.30494,-4.326112 1.93797,-7.268401 3.56782,-0.147034 3.28179,3.251249 4.68661,5.095606 2.12433,-2.215204 1.09608,-7.083734 5.26481,-8.764319 2.06807,1.135944 2.4921,1.792539 1.4693,4.142437 5.60086,0.938229 3.82119,2.131569 8.08267,1.969784 -0.34277,3.320938 -2.31303,4.871461 -3.56604,7.201597 3.58925,-0.63948 4.00071,-4.74017 6.79454,-6.24961 3.399,1.292197 0.0425,5.782458 -1.12176,7.302583 4.07715,1.856884 3.81532,-8.334327 9.30735,-7.77834 0.54706,3.434452 -1.74435,3.784496 -1.90274,6.45456 2.49977,-1.827856 3.23801,-5.571694 7.57566,-5.400548 0.28414,3.716653 -1.84247,4.815484 -2.75199,7.234456 3.52281,-1.284114 4.37849,-5.46617 6.86256,-7.880318 3.03968,-0.452449 1.913,2.941627 3.08984,4.212692 2.88344,-0.842916 2.02846,-5.749837 5.94567,-5.468676 -0.67045,4.668309 -3.99082,6.45579 -4.55267,11.243191 4.54133,-3.018974 4.74977,-10.746206 10.32752,-12.637036 0.81553,3.172768 -3.36988,7.48446 -4.55319,11.243286 7.60771,-2.524826 5.96325,-15.108344 14.57339,-16.541856 -3.7332,7.588094 -7.11409,15.559753 -13.11302,20.686467 9.19903,-3.635051 11.84971,-14.39076 17.25778,-22.14636 4.50704,3.259335 2.21189,13.326017 0.88182,18.00293 4.51234,0.928821 2.09692,-5.67424 5.16402,-6.317643 3.03094,-0.635651 1.30246,4.362705 0.61882,4.924223 0.96868,1.809986 2.77327,-2.600329 5.77461,-1.390914 0.0332,1.159111 0.0378,2.314629 -0.91686,2.412068 1.26846,2.13937 2.3212,-3.090316 4.99263,-2.241536 0.0236,2.012475 -0.0378,3.932901 -1.01821,4.857798 1.46523,2.085426 2.37518,-3.610892 5.80883,-2.208489 0.49377,2.517072 -1.5083,2.339212 -1.02035,4.857656 3.26832,-0.424083 2.17493,-5.591457 5.94434,-5.468486 0.14419,2.998833 -1.09354,4.492529 -1.90194,6.454654 5.62404,0.714935 2.67049,-7.893414 9.24064,-6.148672 -0.23355,2.303187 -1.63553,3.335783 -1.86993,5.638687 2.79053,1.860997 2.86627,-6.517393 7.57557,-5.400785 0.54663,2.854825 -1.34515,3.083981 -1.0534,5.672821 3.01779,2.389611 2.00789,-6.878832 6.75955,-5.434541 1.42931,1.65359 -0.41699,4.552951 -1.08688,6.4886 3.89683,-0.878091 3.08891,-6.868288 7.64261,-7.031491 -0.23072,2.587375 -1.99787,3.509859 -1.90185,6.453567 3.07903,-1.196602 2.70482,-6.15028 6.01138,-7.098437 1.41135,2.152229 -1.72195,5.065726 -1.96949,8.084275 3.15068,1.692641 2.89473,-7.628753 7.6426,-7.03154 0.30541,3.171918 -1.62069,3.919287 -1.1204,7.303813 6.17785,-5.111633 2.98777,-12.167047 6.4889,-18.513957 4.48302,-0.676214 -0.34845,2.748876 3.9746,2.616025 -4.99945,6.190987 2.4009,10.081954 0.16972,15.524059 1.36477,1.705028 3.36747,-3.106297 5.06063,-3.872813 3.11115,0.895396 -0.43874,4.559996 -1.08598,6.487656 3.1687,-0.812518 3.42319,-4.79856 7.54035,-4.584722 0.53749,3.434547 -1.74531,3.78341 -1.90204,6.453899 3.67982,0.593762 2.35717,-4.255668 5.87587,-3.838915 1.71762,1.789136 0.0189,3.632074 -1.01826,4.857516 2.9604,-0.191476 4.0022,-2.467005 5.87654,-3.838583 2.4861,-0.719049 1.36657,1.876977 1.49446,3.329589 2.55092,0.501618 1.951,-2.425732 4.95973,-1.428216 1.46305,1.61728 0.005,2.052662 -0.16974,4.076718 4.69947,-3.915454 10.21414,0.429757 15.62666,-2.610348 1.75391,-0.314871 1.50442,1.229601 1.52551,2.51438 2.42876,-0.419825 3.51969,-5.122273 5.84302,-3.02465 -0.45812,0.638818 -0.90664,1.288558 -0.91671,2.412825 3.82454,-1.80748 3.59798,-8.01752 9.30654,-7.779475 1.13925,-5.22666 -1.82421,-6.684803 -2.00349,-10.699354 13.55886,10.531801 -2.00278,21.905476 -11.71966,26.461315 -28.48045,1.053165 -52.07555,-7.988915 -83.12353,-4.283708 -0.61782,-2.647652 2.73484,-1.004367 2.58246,-3.15958 -1.37063,-2.517824 -2.59414,2.213455 -5.74119,0.57765 -3.65816,-0.09357 1.22049,-2.351225 0.98518,-4.042071 -2.22584,1.841378 -3.75972,4.435276 -7.54181,4.584671 -1.9148,-2.004718 1.28133,-1.464809 0.98324,-4.041496 -2.71473,1.026119 -2.79,4.921249 -7.50682,3.769701 -0.22882,-3.092635 1.77008,-3.758874 2.68504,-5.604506 -3.50933,0.730915 -3.60658,5.168645 -7.57547,5.400498 -1.46504,-1.616946 0.5453,-1.454264 0.16974,-4.075726 -3.2626,1.759682 -3.32311,4.762717 -8.28776,2.920352 6.37617,3.473592 18.91851,2.076532 26.86946,1.937157 -3.83182,3.92908 -7.74269,0.65807 -14.81064,2.649367 7.59723,4.955938 16.34226,3.274888 23.30298,9.138524 9.09313,7.659993 5.24448,24.140108 -2.95648,31.728018 -8.20219,2.44714 -16.54191,4.74503 -25.58138,6.28322 -2.02127,13.99439 -11.55655,19.82137 -19.90591,26.93722 6.9072,6.35896 2.88981,18.35377 2.88564,28.70431 -3.45666,1.35674 -4.13557,5.73248 -9.20763,5.33271 -5.74223,5.71462 -2.37425,16.55807 -12.19542,18.27559 0.98172,4.84573 2.7049,9.00911 4.35003,13.24591 -2.78191,14.8739 -12.85545,21.82081 -19.331,32.67865 -21.43639,11.02372 -52.10213,16.7329 -82.27622,14.53518 -34.23638,-2.49196 -64.84408,-0.50213 -93.41559,-12.06354 -12.17012,-1.34549 -21.5551,-5.2575 -30.64009,-9.44376 -5.84691,6.84045 -11.995412,25.59027 -25.172792,16.10084 -2.868423,-0.56217 -2.124245,2.80089 -4.993581,2.23952 2.56888,-5.97541 -5.016519,-8.10707 -7.676394,-11.75342 0.910245,3.34359 3.56752,5.08147 5.40078,7.57457 -2.721942,1.19722 -9.080953,1.70465 -13.147742,1.89433 -5.706643,-7.556 -14.226291,-12.522 -19.56569,-20.41694 9.397185,5.20378 14.704204,14.17376 24.525359,18.99014 -6.543581,-10.96534 -20.395876,-15.20989 -24.117166,-28.77344 6.082653,5.38051 10.609506,12.19154 16.405685,17.8359 -0.620091,-7.99237 -11.282115,-17.05306 -16.269719,-21.09679 6.705704,-2.69157 10.916983,10.27834 16.575843,13.75747 0.801398,-7.65839 -12.427841,-14.94249 -15.318702,-24.32369 6.516216,2.89071 8.158459,10.26436 14.129736,13.6563 1.396525,-1.08276 -0.790717,-5.49865 -1.334782,-7.40328 -13.222072,-11.87771 -24.557302,-25.49383 -34.238542,-40.62964 -4.843398,2.38205 0.566595,8.32752 2.785926,11.55027 5.084642,7.38573 14.055269,15.72451 17.016775,22.75969 -8.744717,-6.32763 -12.615132,-17.14106 -21.908547,-22.96389 3.138998,10.72985 15.203249,19.96425 21.602376,30.30156 -8.517594,-3.18224 -13.211434,-16.56072 -21.093292,-22.93095 0.782334,8.69104 10.395824,16.04383 14.503744,24.28872 2.959991,1.01624 6.026096,3.14014 4.653275,5.91072 -7.391559,-7.05031 -14.529176,-14.33327 -18.580409,-24.45768 -1.759843,16.26575 7.587824,25.82514 18.172444,34.24116 0.356144,3.96619 -1.318021,5.72232 -0.339219,8.15321 -1.65366,-0.3092 -1.505638,-2.27392 -3.158878,-2.58278 -2.441046,2.18343 2.676957,5.44106 -0.340401,8.15362 -2.676469,-1.88681 -1.917801,-2.05626 -4.755645,-3.46698 -2.767745,-12.51514 -20.315156,-27.6563 -16.098048,-44.77126 4.438638,-6.29859 2.002632,-15.50213 1.835836,-24.42539 -0.382572,-20.39292 1.073282,-41.5716 -3.225124,-59.75329 1.872836,1.27609 1.446565,1.78351 4.04278,0.98509 6.364099,16.78004 15.062592,30.90685 26.731639,44.39867 C 43.354459,135.12119 32.146982,125.31458 25.234569,115.72934 21.190791,103.77659 13.560294,93.614308 11.1049,82.472205 22.559197,99.375688 28.748069,121.1225 43.204329,135.26341 42.826626,124.37182 34.477633,120.81585 31.92732,111.92555 c 4.364496,2.25742 5.651726,7.34484 9.375399,10.19063 -0.125001,-7.39202 -7.184591,-11.52297 -8.933162,-20.78985 4.682289,2.74854 5.592736,8.96714 10.123259,11.85544 C 42.430226,100.9551 30.45435,92.898248 27.513025,80.705481 c 6.302439,1.525789 6.64882,15.309657 13.077089,19.330059 1.927693,-0.837762 -1.019725,-3.207802 1.800922,-4.007692 3.910852,3.45809 0.648213,12.983112 0.881831,18.002892 0.05356,1.28061 1.298681,2.14735 1.494557,3.33001 6.417419,38.24848 11.002807,79.47447 22.211575,113.62917 0.729176,-38.79359 -9.680913,-78.14469 -14.059055,-113.2892 4.255668,2.47363 2.798362,9.02402 3.531197,13.21439 3.652355,20.94234 9.863585,46.35498 10.96273,69.8776 4.175163,4.11479 1.173241,10.27608 5.09701,14.91167 -0.763915,0.89969 -2.255635,-0.5992 -1.767005,3.19372 0.438171,2.72944 5.570692,1.14592 6.386679,3.5318 3.103927,-0.37776 -0.741156,-3.44245 3.396804,-3.12385 l -0.136728,3.25996 c 1.99879,-0.39288 3.626746,-0.33473 5.027588,-3.05566 -5.432923,-4.93751 -13.645544,-11.48441 -13.076886,-19.33008 3.930784,2.91734 4.033968,9.35521 8.491338,11.78657 -0.433634,-4.73285 -5.385335,-8.9272 -4.381088,-12.43214 2.721081,1.85126 4.037723,6.0676 6.114435,10.05552 2.515706,4.83695 6.899832,9.15413 4.414738,11.61773 3.026094,0.48592 5.370967,1.15415 10.56414,1.25688 -15.186971,-20.00363 -23.631163,-46.20718 -28.701494,-75.51548 3.672973,0.74614 1.755279,3.95555 2.21046,5.80813 5.897543,24.09946 14.111846,47.86971 28.259324,66.51525 -1.262123,-5.11802 -7.123276,-12.78034 -9.816122,-19.1949 2.952491,-0.56175 3.867932,2.00306 5.7067,0.2378 -0.423279,-2.99736 -3.25275,0.0378 -6.487599,-1.08701 C 69.698096,163.23813 67.71052,108.44532 72.959604,67.902641 c -4.633994,2.10504 -8.349115,-0.0284 -13.146729,1.89414 -8.271723,21.385041 4.025826,45.618059 5.330951,68.007989 -2.98014,-3.595 -3.945478,-9.79474 -5.061117,-15.72768 -2.01163,-10.68503 -4.298474,-21.32741 -4.243731,-35.295934 -3.837571,5.970625 -0.56583,20.777284 -1.224354,29.350134 -3.368825,0.0752 -3.85426,-5.28959 -2.138325,-7.44049 -5.962999,-18.241175 0.803256,-40.568465 8.936028,-57.612315 -1.268441,-2.139417 -2.32182,3.090128 -4.99367,2.241584 1.93684,-2.353869 -4.4842,-2.258321 -7.234447,-2.751948 1.884485,-4.767498 12.172149,-0.402335 14.096192,-5.128465 -4.006935,-3.655381 -12.239955,3.127288 -14.538093,-3.873993 -0.960449,0.08652 -0.74968,1.458994 -0.916703,2.412825 C 45.847359,44.222914 46.115864,42.413969 43.7836,42.993265 43.84,41.633506 43.896594,40.27493 43.953187,38.916591 61.40403,40.662042 86.1144,38.181799 87.864199,61.155474 118.34751,40.179949 157.30149,28.783105 198.30273,17.57854 213.59969,13.396956 227.78721,6.0837831 245.38511,4.8418411 c 23.58525,-1.664794 47.46307,0.880787 70.99751,1.327704 14.27715,0.271847 28.96651,-0.53632 44.0594,1.021437 2.28253,0.512114 3.37819,2.117196 5.60351,2.683964 34.40655,-0.38106 65.5391,10.0065919 97.42389,13.8642269 4.59986,5.220703 15.89879,2.137007 19.19382,9.784623 -19.41465,-8.161101 -43.32821,-12.273044 -64.10105,-10.025172 -16.94651,-8.493701 -39.83579,-8.05813 -59.14122,-11.450884 -0.85157,0.494716 -0.9206,1.839865 -2.51273,1.529392 C 346.18227,7.7929241 324.82796,13.467454 309.79129,7.5277901 298.73144,11.504992 287.97828,9.1187371 277.11322,7.7972741 234.6241,2.6318862 197.58378,18.234661 175.16419,43.562726 c -6.81647,10.487597 -14.59481,19.929166 -22.45587,29.280967 9.69866,-22.684479 26.15602,-38.029258 44.60377,-51.222472 z m 149.25459,24.192876 c 4.75184,-3.363487 11.35245,-9.240408 9.6826,-16.746805 -2.50299,6.366812 -5.93503,11.728262 -9.68662,16.746569 z m -19.39096,-4.892595 c 2.84859,0.256247 2.68685,-2.762019 4.24578,-3.906615 -0.49344,-0.06855 -0.95765,-0.162636 -0.78018,-0.84878 l -1.63104,-0.06809 c 0.27564,2.580331 -1.29744,3.137452 -1.83976,4.823333 z M 135.73361,70.535821 C 120.55543,90.68493 113.70813,119.88685 97.751131,139.18703 108.23086,133.24922 111.41626,119.38405 119.3579,110.688 c 12.14367,-29.127221 22.48541,-60.211598 44.91099,-78.162569 -0.0874,-0.964516 0.23879,-2.307917 -0.7141,-2.479629 -12.31756,10.192441 -22.68257,22.504962 -27.82859,40.489081 z m 72.49078,-34.543318 c 2.44128,-0.191948 4.98388,-0.263337 5.8086,-2.208443 -2.74165,-0.136159 -4.36653,0.942343 -5.81263,2.209105 z m 143.21692,12.507968 c 0.76019,-1.164358 1.32903,-2.533193 3.36369,-2.309995 -1.99045,-2.452396 1.61997,-4.630533 0.2378,-5.707523 -0.90759,2.458448 -5.10752,5.769505 -3.60196,8.017329 z M 133.72662,59.835332 c 5.07035,-1.727196 7.75896,-8.803652 11.17673,-13.418158 3.56217,-4.808441 9.47825,-9.686569 8.73048,-13.519052 -6.92582,8.665697 -16.52652,14.416574 -19.90408,26.93736 z M 78.214816,157.1625 c 2.238042,-0.49207 -0.744003,3.82019 1.49439,3.32898 3.351882,-7.15551 12.098727,-12.97536 12.297143,-20.72052 -4.597964,5.79344 -8.087873,12.79112 -13.792091,17.39064 z M 145.31089,36.641628 C 115.6722,66.637575 106.25479,118.61332 80.049532,152.34261 91.6292,141.35128 97.510114,124.16536 107.87243,111.85156 c -3.34998,10.84695 -10.212592,17.87476 -15.015369,27.14121 16.378329,-15.99461 27.073069,-44.209942 37.879229,-66.205479 1.22187,-2.489365 3.83192,-9.555322 2.92195,-11.311413 -11.19046,13.401842 -14.93371,34.89923 -25.71676,48.744772 9.6073,-24.262182 21.92636,-52.842347 37.3725,-73.57784 z M 80.389903,144.18345 c -2.104506,2.95889 -5.520023,0.55141 -3.498914,5.5716 C 95.060063,130.5863 107.12712,97.399378 119.45833,69.044344 125.33585,59.522358 133.27124,47.701239 137.05648,38.745445 111.61273,66.75955 101.97493,111.97452 80.387238,144.17826 Z m -3.124668,-3.3979 c 19.418543,-18.66132 24.632585,-52.764822 39.918315,-75.919902 0.8536,-6.426763 12.00781,-17.938111 11.5505,-22.38549 C 105.11482,67.917239 96.315848,113.11506 77.268914,140.79056 Z M 111.03038,55.623825 c 0.25936,-1.774574 3.86088,-4.234583 1.86876,-5.638404 -16.245795,19.845584 -28.180543,48.900987 -35.806781,75.275929 4.650708,-4.71999 7.143588,-10.75651 9.715536,-17.56188 1.243884,-3.29597 0.951168,-7.57447 2.072032,-10.529352 2.640566,-6.961465 7.484971,-13.789853 10.667678,-20.789575 3.229055,-7.101694 5.978875,-15.270501 11.414525,-19.12469 -12.528141,25.732007 -22.626372,49.455467 -33.394869,76.192037 4.900338,-0.35601 3.785849,-7.24728 7.711616,-8.66145 9.742702,-27.760372 20.810723,-54.078146 35.840763,-76.090806 -0.051,-0.997089 -0.15587,-1.940235 -1.56278,-1.699165 -3.31761,2.373253 -4.10956,7.482101 -8.54341,8.630434 z M 78.491159,52.634068 c -0.120986,-3.024364 -3.336832,-3.202743 -4.687664,-5.095842 0.155544,2.993301 2.635731,3.847376 4.687664,5.095842 z m -2.652627,63.591022 c 0.169207,1.89253 -2.393039,0.80604 -2.547832,2.34507 1.944392,2.23573 -2.002722,6.98705 1.256546,9.03646 5.547653,-27.33019 19.047383,-50.764647 31.629004,-73.000309 -14.049045,16.253654 -23.748766,37.2427 -30.337562,61.613149 z m 6.287296,-52.823725 c 0.522335,-4.661453 -0.85971,-7.573306 -3.704162,-9.137961 2.250845,2.114034 -0.07243,8.430544 3.704162,9.137961 z M 387.2088,72.044323 c -5.19744,-0.824626 -15.91751,-4.53495 -17.83472,-3.194055 5.96282,0.542237 12.55218,4.644765 17.83282,3.193955 z M 73.565016,92.4466 c 2.329262,1.414548 -1.475197,4.147878 0.618749,4.924458 3.067883,-2.6313 2.597458,-9.108357 6.964636,-10.327177 -1.736647,7.379917 -8.845151,17.415449 -6.693053,23.404369 5.363411,-19.453599 17.583996,-35.994557 23.408225,-52.108461 -7.046735,7.429204 -10.808089,22.864848 -18.277091,27.005154 3.59802,-7.17172 9.815638,-16.02808 11.550499,-22.385493 -2.478225,1.84937 -3.140218,5.675902 -6.79464,6.250374 0.474613,-1.188373 1.292798,-2.005344 1.767004,-3.193717 -3.632881,1.748761 -11.008078,3.922125 -9.341581,8.594498 0.915114,-2.129108 1.534313,-4.583022 4.280782,-4.721633 -2.525876,9.719513 -7.262672,10.252006 -7.303714,18.478729 4.248714,-4.188253 4.72413,-12.47742 9.647531,-15.930936 -2.629214,6.71667 -6.474444,19.555498 -9.819281,20.001792 z M 391.04554,77.921006 C 380.21424,74.760049 363.79109,63.8349 356.8708,74.861797 c 2.27203,1.048386 5.34386,1.356255 6.38652,3.533772 -3.62593,0.236869 -4.00755,-1.291009 -6.52245,-0.270893 -6.8401,0.545014 3.8636,1.160003 3.22771,0.951942 6.60041,2.175065 19.68725,8.306092 28.19438,9.343896 0.23403,-3.609052 -6.08679,-1.195004 -6.35259,-4.348805 3.65496,-0.484171 4.84849,1.291109 8.11846,1.155888 1.07293,-2.421141 2.20078,-4.774922 1.12928,-7.30419 z m -84.48386,8.726492 c 3.54466,-0.124839 8.50236,1.287757 9.85233,-1.221472 -1.92756,-0.577587 -5.95734,0.779043 -6.48756,-1.086864 1.8758,0.604257 4.51617,-4.085704 0.98305,-4.042686 -1.13179,2.455754 -2.95095,4.173692 -4.34687,6.351685 z m 79.89895,3.332704 c -9.31161,-1.36949 -17.77916,-7.681609 -26.66627,-6.82885 8.91524,1.742607 18.23185,7.27383 26.6692,6.829 z m -7.40309,1.334853 c -2.58809,-0.783822 -7.07353,-3.903975 -9.71239,-2.038768 3.23016,0.18911 7.74208,3.287234 9.70761,2.038718 z m -63.1885,26.768575 c -3.35696,1.19617 -3.57066,-4.47131 -5.63845,-1.86895 1.58003,1.42297 3.69935,2.3473 3.87271,5.0627 -2.52302,0.66691 -2.72031,3.85938 -5.87583,3.83764 0.27847,-0.95497 3.41186,-2.94262 0.98319,-4.04149 -1.37379,3.07286 -5.90741,7.18533 -9.20433,5.3326 2.7137,-2.44748 5.63467,-4.67016 8.45838,-6.99853 -10.07027,-11.76377 -32.57718,-16.99053 -50.10486,-12.70677 -7.154,3.91195 -17.30904,21.30146 -7.78175,29.89306 -6.04107,-8.78469 1.33838,-25.76784 10.05779,-25.71437 -1.03178,2.80661 -9.62303,5.69409 -5.26689,8.76446 2.48899,-8.51029 9.96414,-7.03466 16.74808,-9.91927 -0.0236,1.21202 -3.48807,3.50382 -0.13664,3.26099 2.80812,-0.35269 3.90918,-2.56864 7.43951,-2.13814 -0.38768,3.21886 -2.79294,-1.03183 -2.54875,2.34309 2.71829,1.87187 7.26107,3.22302 12.19528,1.32605 -0.13049,2.35122 -4.68789,1.73628 -2.61574,3.97379 3.10695,0.31393 4.56036,-3.99171 7.40583,-1.31422 -0.49444,1.51473 -4.44866,3.59495 -2.64775,4.78972 0.17399,-1.58939 3.79825,-3.71538 4.95859,-1.42594 -3.41416,0.8343 -4.39145,4.31669 -7.57542,5.40049 -7.18836,-3.84001 -19.78227,-2.70902 -27.51428,-6.04773 -1.43866,0.22315 -5.14421,2.25458 -2.61683,3.9737 9.58544,-0.45056 25.95141,-0.35694 31.62585,5.40295 0.29879,-0.93326 2.68339,-3.73437 3.32798,-1.49425 -0.0662,3.62096 -4.35146,2.65587 -5.12879,5.5036 5.4926,0.92599 7.04577,-6.24876 10.80151,-4.44955 -3.5352,4.1101 -8.0942,7.10884 -12.66937,10.08848 6.91099,1.66579 12.10985,-9.96461 18.34296,-9.03536 -3.86633,5.74379 -13.70552,9.52308 -16.10028,14.02805 8.46902,-3.57658 14.49178,-9.81209 21.84179,-14.60489 0.18061,-2.96243 3.75826,-6.66074 5.91067,-4.65365 -7.06448,7.94371 -14.44919,15.54136 -24.5267,20.21137 9.42645,0.80736 15.07313,-9.70349 22.62504,-13.7578 -2.94455,7.59437 -10.70894,9.94933 -16.13724,14.84481 7.18089,1.4476 10.81409,-8.05311 17.56301,-9.88499 -1.66977,4.71862 -6.62647,5.86392 -8.59375,10.25925 6.68287,-0.0624 8.58642,-3.19253 13.28026,-5.16284 16.83204,-7.06417 40.40506,-14.52622 41.51382,-35.83627 -12.14374,-1.6683 -22.02079,-2.13819 -30.81003,-5.369072 2.36735,0.447262 5.77888,2.291852 3.90677,4.246732 -4.24107,-1.85957 -10.40491,-6.092602 -15.32015,-4.722672 3.26056,1.460742 10.46882,3.410672 9.5453,6.114682 -4.90059,-2.81057 -11.29738,-4.24195 -16.03371,-7.202832 3.83352,-1.99948 7.94745,-2.85927 12.26302,-0.30636 -7.33143,-9.528324 -20.2933,0.6998 -24.01654,7.983392 5.04592,2.45438 14.56631,0.58506 15.99892,8.01652 -4.76102,-1.10781 -8.19088,-3.4422 -11.17544,-6.18262 0.3664,7.19796 8.51177,2.95524 9.38834,10.1646 z m -79.71924,-7.40726 c 0.5706,-3.78918 1.60707,-1.54225 2.44592,0.10119 1.49252,-3.30945 3.96193,-8.49115 2.81993,-8.86563 -0.35694,3.87064 -9.3283,5.5671 -5.2719,8.7681 z m 3.70223,9.13228 c 2.93118,-3.3484 4.38857,-8.29764 5.47062,-13.6562 -4.07861,1.26459 -7.3397,7.91161 -6.99855,11.14117 0.27043,-0.71334 2.35373,-3.4764 2.51386,-1.52751 -0.88551,0.30306 -2.08641,4.3873 -0.99373,4.04046 z m -10.25858,-8.59175 c 1.24861,3.96202 -2.97051,6.36383 -1.15589,8.1195 2.41934,-1.91486 2.6954,-6.16159 4.45096,-8.79846 -1.53983,-0.24206 -1.84161,0.84514 -3.29768,0.67706 z m 3.7028,9.13181 c -3.65562,1.15755 -5.73622,8.51331 -5.36878,11.20939 2.18476,-3.30681 4.98049,-5.94955 7.71163,-8.66249 -3.64238,-4.32691 1.49891,-9.11971 1.29097,-11.37926 -0.9292,3.45441 -6.03572,4.26177 -3.6263,8.83675 z m -14.0644,4.31944 c 4.62146,-1.22652 4.68401,-7.40707 6.99858,-11.14116 l -2.44573,-0.1012 c -0.94683,4.35622 -3.21839,7.29356 -4.55072,11.24144 z m 46.7402,-4.58524 c 4.30971,-0.58572 12.1287,1.01724 17.90294,1.56324 -1.3714,-5.27413 -9.32679,-4.48757 -14.43724,-6.31883 2.62109,4.2205 -3.03184,1.6389 -3.46603,4.7614 z m -244.407944,5.31833 c -1.016988,-0.22173 -1.613034,-1.33914 -1.664689,0.74723 -0.740169,4.07734 1.147621,5.73981 0.406873,9.81724 10.451348,12.59922 17.338741,28.47715 31.080732,38.04916 -0.651484,-7.94097 -5.772606,-10.9391 -9.952166,-15.93325 -8.407263,-10.04218 -16.595293,-19.95347 -19.904548,-31.86408 8.328195,11.93742 15.199963,25.21635 26.324979,34.58213 2.256197,-2.12783 -0.844534,-5.97913 -1.289906,-8.22066 -11.563456,-9.22405 -20.768314,-27.41037 -29.27981,-42.05578 -0.211237,6.4574 3.318337,9.48002 4.279935,14.86743 z m 259.631124,1.85187 c -12.146,0.0141 -16.03016,-2.09143 -25.20633,-2.6841 4.1476,3.83296 19.35125,5.60535 25.20345,2.68019 z m -69.37177,18.33983 c 3.45284,-1.64209 7.19753,-2.96885 9.23852,-6.14749 -0.99261,-0.13427 -1.91958,-0.3262 -1.56278,-1.69921 2.83431,-3.54262 7.40475,-8.47701 7.06492,-12.77229 -3.00801,-0.99846 -2.40695,1.9295 -4.95901,1.42604 1.66606,3.44716 -0.75461,6.19627 -3.5658,7.20154 -0.0284,-2.0901 3.79617,-4.30417 1.86791,-5.63854 -1.24819,2.05233 -5.35266,0.99577 -5.87668,3.83778 2.25803,4.19086 -5.47384,9.35619 -4.58677,12.05907 4.35864,-1.22724 4.18282,-7.38386 9.3084,-7.7783 -1.66002,3.33541 -6.5773,7.60483 -6.93187,9.5229 z m 43.92064,-15.31972 c 9.09357,0.4752 19.36969,4.43363 28.50107,2.00524 -8.42978,-1.38187 -23.66403,-4.53919 -28.49945,-2.00315 z m -33.01634,8.42525 c 0.2014,-1.19992 2.00118,-0.66492 3.29422,-0.67651 0.10683,-5.01536 7.79178,-6.27967 6.93155,-9.51036 -1.85669,4.52449 -10.91484,5.73632 -10.22747,10.19032 z m 50.75697,-2.78883 c -1.5821,1.68962 -6.02016,0.2728 -7.43841,2.14003 6.60339,0.35978 13.43751,0.97157 16.43941,-2.59285 -8.25926,0.35458 -22.89614,-4.56089 -27.71938,-1.15633 7.43718,0.24113 12.99422,1.57246 18.71394,1.59516 z m -79.83409,14.6359 c 5.41092,-4.68826 13.62781,-10.67047 13.04549,-19.05667 -4.54808,5.05983 -11.70347,16.17296 -13.04069,19.06087 z m 97.38836,34.28381 c 0.80689,-1.39743 1.63624,-2.77039 4.17885,-2.2769 -0.2572,0.49154 -2.15739,3.05476 -0.13664,3.26184 0.89124,-1.58877 1.55487,-3.42443 3.43299,-3.94075 2.42913,1.32241 -1.93944,4.57498 1.46125,4.14414 0.58361,-2.48969 0.44915,-5.76184 3.49885,-5.57055 0.19148,1.89948 -0.26145,3.12388 -0.98712,4.04272 3.66697,0.86103 2.07687,-3.99333 5.06162,-3.87282 2.31307,-0.0378 -0.88476,4.99666 1.42628,4.9604 2.03219,-1.76984 0.9432,-6.93132 3.60106,-8.01762 3.22416,-0.0903 -0.005,5.75301 2.17331,6.62406 1.14262,-2.45288 1.40335,-5.86032 2.78509,-8.04957 1.72825,0.76174 0.51145,4.23212 2.24164,4.99367 1.44897,-2.12079 0.0851,-7.29369 3.56687,-7.20155 -0.35978,3.37001 0.937,3.22194 -0.23781,5.70752 4.19771,0.58393 1.29448,-6.54751 3.603,-8.01728 2.13672,5.17262 2.76481,-6.20867 6.55447,-0.5444 -0.43639,-3.87981 0.72963,-6.02377 3.53179,-6.38569 0.41084,1.19203 1.19135,2.04297 2.34521,2.54885 4.68391,-7.46905 6.21019,-15.5051 10.70144,-21.6046 -4.52204,-0.54398 -2.98346,-6.66377 -6.18244,-8.42458 -13.8749,7.9657 -24.77972,16.13687 -40.62759,14.63968 -0.0189,1.40567 -0.71607,2.06301 -1.73193,2.37783 -10.28455,-4.24782 -23.77167,-2.97462 -31.86414,0.30447 0.2241,5.03887 -7.5158,9.28481 -2.14008,12.16118 0.13191,-5.95132 4.13692,-12.77261 6.14868,-10.36017 1.02872,1.23495 -5.44839,5.92282 -2.85482,9.68118 1.04852,-2.271 1.3572,-5.34401 3.53496,-6.38654 0.57622,2.64775 -0.25057,10.28871 -6.08277,8.72935 0.43496,1.47 -2.52927,3.28769 -0.16972,4.07667 -0.42835,-4.19096 2.77789,-3.20355 3.29701,-0.67693 -3.79566,2.69219 -4.41504,8.83618 -10.1914,9.37425 -0.0874,-0.96446 0.23686,-2.30777 -0.71593,-2.47831 -1.75392,3.49077 -10.32265,-0.42549 -13.14815,1.89438 13.44028,-2.29803 27.21029,10.24682 42.22407,5.84515 -2.76854,-1.29669 -3.88032,0.74681 -5.67263,-1.05349 0.0332,-1.19443 3.54702,-2.43992 0.10308,-2.44706 -1.40524,-2.55371 -1.36927,3.54297 -4.17884,2.27686 -0.0643,-4.04707 2.94862,-4.74976 3.60304,-8.01733 -4.1334,0.33898 -3.47846,5.87867 -7.61079,6.21746 3.73254,-4.46477 4.82896,-11.79596 8.05289,-16.81474 -5.16166,0.54559 -2.21441,4.72041 -5.19891,7.13342 0.0378,-1.07954 -1.39711,-0.80485 -1.56277,-1.69917 2.2065,-5.02795 4.35505,-14.33071 11.31359,-16.67877 -1.60755,4.83208 -3.452,7.739 -3.77297,12.09301 5.14809,-0.45622 2.11162,-7.38578 7.71055,-8.66144 -1.98061,5.79882 -4.81454,10.67317 -7.98277,15.18409 1.21253,0.18911 3.02152,-0.16642 3.22912,0.9517 -1.97394,0.98173 -1.75689,4.34119 -2.71904,6.41957 3.16828,0.004 2.76197,-8.31745 6.72494,-4.6198 0.11446,2.39543 -1.94718,2.4289 -1.83413,4.82371 1.46896,-0.0425 1.87427,0.8884 1.52565,2.51537 -0.47808,-0.0502 -0.977,0.60752 -0.0624,0.80127 z m -89.98396,-35.60376 c 4.83566,-4.40237 8.73996,-9.81574 11.3133,-16.67887 -5.68511,2.92281 -9.21351,12.70503 -11.31237,16.67977 z m 56.69582,-8.25088 c 6.58737,2.26858 18.63654,2.59952 23.67655,0.1702 -6.76919,0.20849 -17.26123,-0.67106 -23.67934,-0.17352 z m -32.2034,8.45909 c 3.96595,-1.93924 7.13068,-4.74902 10.90553,-6.89444 -6.25618,-0.56506 -7.91388,3.88918 -10.90426,6.89449 z m 12.47251,-5.20042 c -0.16264,3.82799 -8.38968,3.34647 -6.01294,7.09952 1.14044,-1.59841 2.79114,-2.6468 5.02785,-3.05693 2.88117,3.09731 10.6274,1.72095 14.53813,3.87299 -0.65753,-6.12393 -8.20913,-1.22052 -12.05929,-4.58694 4.04774,-1.95399 8.96416,-1.49421 14.70827,-0.20282 0.49009,-0.47406 2.0703,-3.78737 0.16973,-4.07568 -2.87086,3.66767 -9.18926,1.76497 -16.35729,0.9457 z m 28.43119,3.63898 c -3.09315,-1.85594 -7.91166,-1.88128 -9.74954,-1.22304 4.4288,0.62681 8.07912,3.43762 9.75148,1.22105 z M 82.123436,161.41718 c 5.456548,-5.43616 13.343845,-12.76049 13.929191,-20.65357 -4.123218,7.4422 -10.292362,12.66994 -13.929149,20.65253 z m 1.496571,3.32962 c -1.509847,0.71286 -4.815116,0.80908 -2.583224,3.15897 7.220693,-2.95174 16.227458,-15.87448 18.175239,-24.55838 -5.363648,6.9489 -10.329244,14.32657 -15.59126,21.39763 z m -44.535322,10.38805 c -6.392713,-7.0803 -10.545664,-15.67828 -17.866666,-21.97882 6.817374,20.12211 23.038923,31.59365 35.631191,46.40458 -1.529617,-11.50497 -11.237763,-17.19864 -17.764436,-24.42785 z m 2.411917,0.91477 c 6.70325,1.15883 8.45742,11.02552 13.416932,11.17549 -2.13068,-2.63518 -3.358439,-3.06412 -2.139947,-7.43757 -12.431832,-10.7773 -20.692657,-25.39155 -31.929696,-37.26694 3.082127,14.67031 14.843814,21.36206 20.652469,33.52613 z m 47.35387,0.34655 c 5.805176,-7.04535 16.156418,-13.68326 16.509118,-23.8123 -3.07359,2.62387 -4.15264,7.41545 -8.526499,8.62717 -0.469564,-6.79481 9.781559,-9.94867 5.537949,-15.28497 -4.528198,9.56842 -14.784882,17.44657 -16.646328,27.07314 4.418308,-3.15089 5.35335,-10.08924 11.108331,-11.78708 1.088014,5.30458 -9.147857,9.83275 -7.982707,15.18984 z M 240.07712,153.30709 c 1.39716,0.80485 4.05611,0.45056 4.82428,1.83503 -1.30364,1.24039 -8.31825,-1.91494 -10.63293,0.37303 9.06217,2.37874 18.06336,4.81294 27.48115,6.86299 -0.61853,-8.20937 -15.13217,-11.4836 -21.67949,-9.06813 z m 25.11116,5.12926 c 0.25482,-1.77599 3.85914,-4.23496 1.86795,-5.63958 -1.23202,1.30175 -5.45511,4.22706 -1.86412,5.64276 z m -40.49825,11.3707 c -3.15631,-3.55506 0.0643,-13.79718 -0.9152,-17.18899 -4.1631,4.77072 -1.18658,8.95702 -2.24206,14.60715 2.64675,-0.59713 0.99477,2.73966 3.14993,2.5844 z m -67.05599,2.10907 c 8.88224,-2.84684 17.66792,-10.3321 20.31486,-17.11884 -6.7263,5.76384 -13.35831,11.61977 -20.31884,17.1186 z m 74.02172,-12.43431 c 6.83344,1.29172 13.22191,2.99359 19.39573,4.89283 -6.41069,3.07045 -15.293,-5.133 -20.38166,-0.85035 10.06464,1.45518 19.80341,3.21155 26.63122,7.64494 -9.2431,-0.23876 -16.91577,-6.24068 -23.50649,-4.24806 6.79988,3.1538 16.78533,3.37587 23.40447,6.69388 -4.65678,2.48984 -11.35084,-3.49564 -16.30584,-0.68019 2.50794,0.56833 6.21061,0.0378 6.42066,2.71697 -4.17463,-0.29312 -11.53002,-4.40484 -13.82509,-1.39305 4.38715,-0.23497 11.41628,4.87108 17.01857,3.16113 -0.8754,-0.23307 -1.90157,-1.42499 -0.74746,-1.66611 2.9784,-0.12859 5.29964,0.3508 7.30252,1.12285 1.78258,-2.32376 1.92474,-6.43309 5.19788,-7.13455 -3.76195,0.84859 0.30399,-5.50745 -2.20844,-5.80819 -7.43312,0.13143 -20.15966,-7.63106 -28.39706,-4.45196 z M 87.755503,182.88727 c 1.003098,3.635 1.983433,-1.11165 2.514449,-1.52759 7.826946,-6.11029 19.380348,-16.19021 19.874128,-26.12314 -7.8908,8.74721 -13.850756,19.59615 -22.383811,27.64936 z m 66.892607,1.9758 c 1.81748,-5.41999 9.18826,-9.31711 9.54561,-13.48597 -9.42737,5.66082 -14.15659,16.42868 -23.78091,21.87635 4.14721,-7.42369 9.87802,-13.12489 16.27321,-18.10571 -2.46923,-0.69658 -2.45641,1.30729 -4.92439,0.61887 0.0397,2.03281 -1.38651,2.46994 -1.80097,4.00874 -14.92443,9.06014 -27.72472,24.97235 -39.81394,34.27237 8.7837,-3.23773 17.13518,-11.47973 24.25363,-13.68783 -6.65915,5.54475 -13.99892,10.34983 -20.28077,16.30457 8.22644,-1.57214 14.42579,-9.87961 21.63973,-9.71399 -1.135,0.55111 -4.34355,3.12255 -1.836,4.82361 4.9301,-2.03697 10.04051,-8.39148 14.23443,-8.38946 -6.52489,7.11447 -18.65108,12.67458 -24.42595,17.76579 10.52474,-0.49486 16.51803,-10.44877 24.93458,-10.39308 -6.60753,5.59972 -15.14144,9.10789 -21.84366,14.60478 7.64841,-0.49211 10.17082,-6.55606 18.24235,-6.59129 -2.43761,3.88397 -8.21852,4.1335 -10.9388,7.71131 10.42386,-3.44032 19.24538,-8.62377 26.76869,-15.21675 0.1052,2.86952 3.12263,-1.92039 3.22676,0.94995 -7.24944,6.89183 -16.85358,11.22177 -25.98767,16.06671 7.15287,-0.47136 13.11039,-6.76025 19.80465,-4.89122 -2.07732,2.58916 -10.34836,2.92919 -9.23953,6.14768 9.00579,-1.90865 15.00597,-11.45883 23.33675,-11.27624 -2.43953,4.45016 -9.26337,4.13307 -11.00655,9.34134 8.95216,-0.7876 11.98468,-12.53368 20.07702,-11.41401 -3.71753,7.89479 -14.91007,12.19471 -17.90299,18.03858 9.83701,-4.64679 16.05203,-13.23132 25.27445,-18.54743 -4.0369,9.25039 -15.87759,14.55241 -19.66984,21.22937 3.16614,-2.937 7.38771,-3.959 10.90425,-6.8934 5.64013,-4.70807 9.23871,-13.74915 16.10217,-14.02899 -5.29006,8.16876 -12.64513,14.09371 -19.63589,20.41556 11.08021,-4.43225 16.62254,-14.88363 25.41074,-21.80756 -2.55022,10.01406 -14.06384,14.81956 -17.22334,21.33171 9.67116,-5.11097 14.86872,-15.08513 23.74476,-21.05953 -3.53308,10.08091 -14.39472,16.73191 -18.92109,22.89344 11.12974,-6.9332 20.09968,-16.21516 25.71666,-29.14297 l 3.25994,0.13664 c -1.03973,2.84839 -2.41712,5.32524 -5.16359,6.31755 -0.80566,9.1085 -8.50921,12.86803 -13.89456,19.83858 13.64876,-5.73787 21.9855,-20.4234 24.35706,-35.73632 -5.54318,-0.62809 -2.53811,8.03615 -7.67664,7.84741 1.01855,-5.7105 2.44208,-10.98108 5.50484,-14.47113 -0.93786,-4.24186 -1.294,-3.38595 1.08611,-6.48656 -2.13672,0.14466 -4.09104,0.10394 -3.15883,-2.58285 -2.42454,-0.28271 -2.89859,2.89431 -4.92436,0.61883 0.06,-3.05973 3.11117,-2.86783 3.49961,-5.57066 -3.91145,0.01 -3.29957,4.93538 -8.32351,3.7368 1.54103,-4.00785 5.16662,-5.74739 9.2735,-6.96252 -1.94316,-2.01399 -4.79733,-0.20896 -7.33672,-0.30636 1.05931,-3.11027 5.21012,-2.85955 6.76088,-5.43558 -5.33545,-0.66856 -7.03433,7.10293 -11.61824,4.41438 1.40221,-3.30392 5.56459,-3.60825 7.60945,-6.21534 -5.43382,0.63566 -8.92199,7.89843 -13.3504,6.7944 2.35642,-5.11797 12.24487,-6.56491 12.70444,-10.90441 -7.75611,2.64733 -12.61371,8.4462 -20.07675,11.41316 4.74136,-7.06122 13.18191,-10.10128 19.43189,-15.52373 -9.8857,2.60673 -15.52188,9.83181 -23.47367,14.53874 -2.03892,2.34901 -4.21601,9.02412 -8.42467,6.18159 6.11231,-7.84392 14.86242,-12.81986 22.04686,-19.49753 -11.69714,3.76006 -17.961,13.42837 -26.97249,20.10841 3.95154,-9.34116 12.96603,-13.17766 19.60208,-19.59946 -1.91948,-0.0978 -2.45947,1.30354 -4.9246,0.61887 -2.23611,4.60859 -7.99405,6.23665 -11.85643,10.12219 -2.86786,2.88682 -4.21589,10.43705 -9.34137,8.59444 4.97448,-7.66104 11.99995,-13.09247 18.75199,-18.81862 -9.06022,2.08283 -13.06853,9.6566 -19.3979,14.70782 -0.89589,2.18617 -2.69001,7.82093 -5.9107,4.65364 3.76278,-5.85309 8.46236,-10.68673 13.69033,-14.94603 -10.4703,2.8403 -13.0365,14.25304 -21.99474,18.71672 z m -39.67901,-27.7947 c -7.97298,10.36567 -16.258559,20.39254 -25.716705,29.14396 10.626949,-6.35665 23.378695,-19.43433 25.716625,-29.13919 z m 34.47879,15.32237 c 7.84334,-1.70555 15.46391,-8.18186 16.91712,-13.99585 -5.2557,5.08918 -11.97534,8.57677 -16.92092,13.99268 z m -29.38999,-0.41132 c -8.17798,7.86964 -22.720247,8.82228 -27.006659,20.92347 4.446841,-2.5609 9.085019,-9.42833 13.451309,-9.23941 -3.20688,5.60541 -9.799327,7.52829 -12.80625,13.35017 5.343262,0.12861 5.328719,-5.57094 10.05439,-6.11369 -1.25621,4.03144 -4.781459,5.5977 -6.114618,9.5445 5.071038,0.38012 5.494048,-7.25175 10.055288,-6.11457 -3.41598,4.43106 -4.59507,6.14209 -7.779669,10.29342 4.638159,0.49485 4.623509,-4.06575 9.137579,-3.70289 -1.682,2.7371 -7.70684,5.22939 -6.86179,7.88145 4.03702,-2.14505 6.53642,-5.96193 11.71962,-6.86139 -1.60294,3.93744 -6.27704,4.54014 -8.49375,7.81238 7.20442,-0.40896 10.0657,-5.53709 15.83101,-7.50635 5.34764,-8.96113 18.2223,-14.27805 21.368,-22.79346 -5.75263,1.73567 -16.53674,-6.1109 -26.05413,-1.90297 5.26507,-5.92784 16.73059,-9.6461 17.86792,-17.22271 -4.52276,3.04527 -8.34177,11.37457 -14.30116,10.01912 1.426,-2.70959 5.2662,-2.79568 5.97865,-6.2836 -5.32316,1.89281 -10.34088,8.63119 -15.04912,8.35645 2.48697,-2.41022 4.2602,-5.59575 6.08175,-8.73037 -6.02587,5.66928 -13.85334,13.91372 -17.937208,18.85345 6.922878,-4.83301 12.371308,-11.24867 20.859768,-10.5611 z m 11.28491,3.73812 c 7.52745,-3.17957 14.23032,-7.25616 17.76603,-14.77485 -5.53713,4.78305 -14.91616,9.9258 -17.76772,14.77201 z m 8.18339,-0.47358 c 6.79404,-2.84622 15.3805,-8.27197 16.91823,-13.99396 -5.92182,4.35495 -12.49152,8.01548 -16.92111,13.99277 z m -13.85989,-0.57826 c 4.70991,-1.4205 11.7842,-7.63679 16.03313,-12.39804 -6.31985,3.07244 -12.12328,6.70636 -16.03037,12.40117 z m 134.65253,2.34937 c 2.31468,1.10806 3.69917,0.57009 4.17885,-2.27685 l -2.44686,-0.10357 c 0.18863,1.61605 -1.16379,1.58125 -1.72811,2.38105 z M 230.6634,202.7322 c -1.16196,-4.27179 -3.09103,-7.98509 -1.97262,-11.515 1.93474,-6.08527 7.57263,-4.62651 10.15764,-8.55946 -11.80154,-1.23792 -15.97447,13.64968 -8.1871,20.07772 z m 33.1281,-10.87358 c -0.27185,0.9456 -3.7331,3.2373 -0.13664,3.25995 0.96863,-1.50334 2.15285,-2.77265 2.64998,-4.78972 -7.25081,-1.86752 -17.79774,-6.67388 -24.32246,-4.281 8.64612,0.66476 16.0782,2.44653 21.80577,5.80591 z m -12.37394,22.35614 c -0.96451,0.0874 -2.30777,-0.23687 -2.48019,0.71432 14.20075,6.31887 31.51995,2.95935 44.60149,7.57712 1.38354,-2.78301 6.02628,-6.48681 7.60852,-6.21746 -0.63494,3.85527 -3.80114,4.95925 -6.79284,6.25155 4.85956,-0.5279 9.85928,2.92295 13.85927,0.57811 -4.3898,-1.11154 -6.65426,0.55561 -8.90039,-2.00599 3.86062,-2.05347 4.39155,-7.72558 9.34253,-8.59238 -1.25665,1.51691 -3.79925,6.03984 -2.75299,7.23441 3.00711,-2.69853 4.6148,-6.91647 8.52751,-8.6274 0.01,2.06854 -3.63567,4.47882 -1.86866,5.63765 5.22642,-6.71521 12.041,-13.67734 11.61745,-24.0163 1.16662,-1.95059 2.99689,1.02295 3.29686,-0.67693 -1.20227,-0.20282 -0.67465,-1.99919 -0.67687,-3.29663 -11.7164,-3.557 -20.64557,4.39788 -32.06818,5.19592 -7.46702,0.522 -13.52393,-2.99447 -21.97759,-1.73296 -5.04496,7.86774 -7.95165,18.05914 -15.66025,23.03121 0.0141,-1.12294 0.45811,-1.77642 0.91667,-2.41283 -7.99128,0.0284 -14.77368,-5.21526 -20.2119,-4.92587 3.69264,4.62836 8.6335,3.3232 13.63191,6.289 z m 1.66367,-20.34976 c -6.02613,0.58019 -7.54664,-2.98758 -13.79029,-2.20797 1.43015,3.64957 9.16188,1.49979 10.39337,5.33374 -4.32904,0.29833 -8.54017,-3.60995 -12.19513,-1.32506 7.84264,1.93055 13.64472,5.74015 22.59034,6.65895 -0.80617,-2.60643 0.002,-1.85084 0.20472,-4.89175 -1.2696,-1.18521 -4.17525,-0.86509 -4.79062,-2.65091 1.45238,-0.12147 4.04831,0.9925 3.32879,-1.49441 -5.22027,-0.72779 -4.28073,-2.29193 -9.68042,-2.85369 -0.6428,2.93643 3.84705,1.16048 3.93919,3.42178 z m 12.03012,5.39818 c 2.22443,-1.14899 6.78012,-6.37083 3.60087,-8.01657 0.31961,4.10509 -4.69549,5.77002 -3.60172,8.01365 z m 47.32163,20.76419 c 6.32946,-4.88729 15.75501,-15.09534 14.81224,-22.25032 -3.09159,9.42805 -9.6652,15.06069 -14.81247,22.2543 z m -55.10043,-10.47194 c -0.26334,-1.97536 1.56219,-1.71146 0.98508,-4.04282 -6.98828,-3.504 -17.12002,-8.2882 -25.81641,-7.6099 11.88864,0.56493 11.18571,12.71226 24.82967,11.65257 z m -20.28187,-3.28922 c -1.61624,-0.33378 -7.92991,-2.96735 -8.18635,0.47614 2.32343,-1.83575 7.01244,0.78348 8.18338,-0.47363 z m -14.16605,6.75846 c -1.19264,0.40659 -2.04065,1.18885 -2.546,2.34475 -0.50967,5.70511 -6.99207,12.27868 -11.31335,16.67877 -2.51561,0.4047 -2.77616,4.07398 -0.84879,0.78018 5.17253,-1.19409 7.16817,-5.84335 11.75337,-7.67537 2.25341,-4.0831 3.53081,-9.22925 7.03073,-11.95822 -0.0789,11.32796 -10.86071,18.2716 -18.17412,24.56018 7.86888,-1.38605 10.21183,-8.78456 16.81503,-11.54809 -2.55149,5.7495 -7.36235,9.03905 -11.17643,13.41623 8.99205,-3.01099 14.3604,-14.49714 20.34909,-17.93476 -1.47559,5.21545 -4.36918,8.88601 -7.06672,12.77117 5.86988,-3.27768 10.03709,-8.40549 11.31151,-16.67887 -5.23696,1.29716 -1.93003,-0.39288 -4.82272,-1.8341 -1.96051,2.98276 -2.06207,7.98552 -6.86271,7.87952 1.33617,-3.94373 3.21673,-7.29763 4.55276,-11.24319 -2.53215,-1.22767 -2.71662,-0.29124 -5.70652,-0.23781 l 0.23827,-5.70569 c -4.38478,0.19952 -2.41221,2.31369 -3.5334,6.37779 z m -106.45939,6.99046 c 4.82777,-3.27517 12.54566,-3.40878 15.86402,-8.32222 -5.49722,-1.11175 -13.70733,5.87479 -15.86048,8.32629 z m 111.82665,21.00195 c 6.03994,-2.85355 19.8377,-17.22695 12.33168,-21.53855 -1.9722,8.93513 -8.31117,17.64882 -12.3295,21.53363 z m 8.21808,-1.2938 c 6.17349,-2.38319 11.6607,-10.04124 10.53072,-17.52689 -2.4317,7.01235 -6.58142,12.16728 -10.5337,17.5267 z m -199.402509,-16.482 c -3.750494,-0.75272 -5.013976,-7.90661 -8.730534,-6.0807 3.118574,1.33773 4.59621,8.2968 8.730289,6.08471 z m 206.739219,16.7875 c 2.87791,-4.54174 7.53576,-7.14887 7.94949,-14.36608 -4.461,2.26678 -6.70769,11.43591 -7.94845,14.36717 z m 24.52618,-0.60582 c 2.56035,0.48356 8.42473,-7.28731 7.77877,-10.29138 -2.70831,3.29205 -5.03225,7.02179 -7.77862,10.29239 z m -20.4078,-0.0378 c 4.13435,-0.0505 3.08392,-5.73826 6.79477,-6.24961 0.64685,5.23771 -2.50762,6.36354 -3.67004,9.64647 6.60915,-0.27091 6.1003,-9.33898 2.17615,-12.97635 -1.08621,3.93857 -3.72199,6.19326 -5.3058,9.58109 z m 13.99647,-2.68274 c 0.79071,-2.02278 5.37033,-4.33282 3.53188,-6.38776 -0.20896,2.66032 -4.99632,4.74689 -3.53379,6.38762 z m 4.10872,-0.64209 c 3.92557,0.57642 3.26742,-3.83252 5.13068,-5.50242 -2.11832,1.3936 -4.67832,2.30668 -5.12586,5.50669 z m 6.34397,4.34664 c 3.54348,-1.7038 10.93173,-5.83574 7.7454,-9.47751 -2.1807,3.58859 -5.76058,5.66668 -7.74444,9.4794 z m 9.04113,-1.25736 c 1.44893,-2.70864 7.37616,-5.01944 6.0467,-7.91563 -1.12866,3.06342 -6.83714,5.60218 -6.05024,7.91138 z m -128.73836,-6.99834 c 3.10146,-0.88916 6.34541,-1.62243 7.5406,-4.58572 -2.86403,1.14668 -5.49358,2.5575 -7.54039,4.58174 z m -68.18363,9.40077 c 4.791189,0.0959 8.082583,-1.44028 9.988277,-4.48256 -3.753147,1.02948 -6.931693,2.69347 -9.988112,4.47959 z m -43.677825,-9.98773 c 3.460162,-0.28792 7.988765,5.18245 10.258329,8.59549 -3.520956,0.35932 -5.221688,-0.94518 -6.419504,-2.7188 -0.664226,0.68741 0.157955,3.62351 -3.397174,3.12681 -2.374738,-3.66091 2.878337,-5.71835 -0.442237,-8.99656 z m 1.054363,-5.66677 c 5.793885,4.0772 10.919309,8.77033 15.760873,13.72543 -6.482185,-0.31866 -12.819667,-7.55057 -15.76075,-13.72727 z m 251.069012,-8.3175 -0.10358,2.44502 c -1.43885,-0.24536 -4.11761,0.65301 -3.19484,-1.76601 1.45459,0.1598 1.76521,-0.93686 3.29767,-0.67702 z m -2.34811,-2.54094 c -1.23248,1.21891 -1.84676,3.10596 -2.64982,4.78962 -1.46491,0.0425 -1.67661,-1.07022 -3.22676,-0.95 1.32845,-1.97565 2.95713,-3.61514 5.88056,-3.83674 z M 28.073873,204.06732 c 4.119767,4.5747 9.625353,7.87166 11.65135,14.3702 -5.54726,-3.26335 -8.614009,-8.80744 -11.65135,-14.3702 z m 181.091017,5.10086 c 3.72388,0.56416 0.48407,6.22048 -2.65087,4.78962 0.11871,-2.42871 2.24111,-2.68336 2.65252,-4.78571 z m -28.53336,-1.19023 c -1.9858,4.09025 -3.97631,8.17548 -10.1234,7.74349 3.60066,-2.34261 4.01887,-8.13363 10.12536,-7.74155 z M 287.47169,211.62 c -0.99193,2.04775 -1.70993,4.3923 -3.50069,5.57061 l -2.44388,-0.1017 c 1.28506,-2.57612 2.51338,-5.21342 5.93885,-5.47283 z m -93.72478,-4.73369 c -0.59156,1.91731 -1.25445,3.74889 -3.43063,3.93975 0.59079,-1.90894 1.25506,-3.74487 3.43163,-3.93866 z m -4.89764,-0.20377 c -2.41498,1.92039 -1.23463,7.74818 -6.7946,6.2506 1.07341,-3.37975 3.55469,-5.23876 6.79589,-6.25164 z m 9.81956,-0.40422 c 1.32425,-0.18627 1.37194,0.82954 2.41182,0.91685 0.59722,2.64799 -2.18428,1.60282 -2.5818,3.15868 -1.90091,-0.28555 -0.32136,-3.59482 0.16991,-4.07463 z m -34.20994,-2.2414 c -6.25841,4.82858 -11.70771,12.20586 -19.32902,13.07709 6.05566,-4.27078 12.16306,-12.83716 19.32616,-13.07813 z m 110.57491,11.96177 c 0.62496,-3.86633 3.15621,-5.65954 4.44998,-8.7985 2.66789,1.88255 -1.06356,3.69712 4.78863,2.64996 -0.81994,4.1457 -4.57201,8.93453 -9.2347,6.14963 z M 23.488456,196.51842 c 1.355574,2.15071 3.623459,3.46169 3.804685,6.69157 -2.317939,-1.26502 -4.085657,-3.03567 -3.804694,-6.69366 z m 265.847214,9.46021 c -1.2494,1.49709 -4.48454,3.39846 -5.8086,2.20844 0.45671,-0.63651 0.90461,-1.28832 0.91686,-2.41184 2.54893,0.51845 3.26774,-1.64858 4.89742,0.20377 z m -43.17252,-2.61513 c 3.69122,0.26238 5.82832,1.95617 8.86663,2.81979 -2.49537,1.72147 -8.57917,0.0728 -8.87022,-2.82296 z M 143.4657,198.26472 c 0.97787,2.791 -3.00572,7.50758 -7.64364,7.03154 1.88444,-3.07108 5.28044,-4.49933 7.64256,-7.0305 z m -74.151137,-3.91711 c 2.56738,-0.01 2.713261,2.20703 3.090718,4.21175 -2.568189,0.01 -2.714348,-2.20334 -3.090798,-4.21095 z m 92.188087,2.21648 c 1.29541,3.79626 -7.34361,11.25047 -13.58815,12.50003 3.52635,-5.26911 9.92443,-7.39643 13.59125,-12.50273 z m 42.43761,0.94579 c 0.99099,1.96696 -0.29833,8.73648 -4.41697,7.98363 0.62964,-3.55544 3.15522,-5.06885 4.41469,-7.97975 z m -10.59832,-0.44204 c 1.24348,2.80674 -1.52325,8.54863 -5.26584,8.76441 0.8774,-3.8686 3.46368,-5.88023 5.26188,-8.76858 z m 15.55388,-0.98069 c 3.10876,2.32266 0.17304,10.30615 -3.63481,8.83141 1.48349,-2.64619 2.26428,-6.0676 3.6359,-8.83632 z m -91.31028,-3.8087 c -1.5363,4.01181 -3.87885,7.14727 -8.49376,7.81229 1.95371,-3.54901 4.78041,-6.15889 8.48962,-7.80959 z m -46.505145,-1.12554 c 2.391927,-1.12318 3.837089,5.33119 5.400733,7.5756 -4.89938,0.32434 -2.686091,-5.88207 -5.400776,-7.57457 z m 4.959583,-1.42198 c 0.954379,-0.0861 1.444225,0.24017 1.595878,0.88385 2.58649,4.97269 4.767914,10.77264 7.506644,15.8291 2.636547,4.86797 7.64842,8.54179 7.609387,13.38545 -8.635293,-7.20926 -12.372422,-18.93374 -16.71276,-30.09457 z m 211.186772,7.99473 c -1.49928,3.19901 -3.54404,5.80421 -5.26491,8.76243 -2.7796,-1.81339 1.78867,-8.29513 5.26179,-8.75865 z m -70.92659,-2.95874 c -0.73002,5.74038 -1.14191,11.82627 -6.25075,12.80543 1.75349,-4.63677 1.76072,-11.16158 6.25476,-12.80893 z m -33.39659,-2.21714 3.26197,0.13663 c -3.19737,4.85718 -5.93854,14.4431 -11.99161,13.38402 1.98627,-5.51 8.36556,-6.24478 8.72781,-13.52014 z m 95.46275,2.35325 c 0.83653,4.32597 -4.26938,9.54966 -6.28493,13.62193 6.1403,-2.13147 5.38022,-11.764 11.99165,-13.38398 -4.36243,7.19191 -7.20274,16.03287 -13.92967,20.65466 0.46663,-2.3346 2.99311,-2.4307 2.68402,-5.60584 -3.62887,0.31819 -2.67621,5.61184 -6.76083,5.43558 1.62361,-3.63335 4.64462,-5.74657 5.33492,-10.39512 -4.59185,1.82492 -3.91743,9.37794 -9.41042,10.22516 2.37761,-4.80112 5.17206,-9.15105 7.91673,-13.55508 4.19331,4.14886 5.4664,-4.72717 8.47497,-6.99571 z m -151.63871,-6.32525 c -0.23819,4.30261 -7.37405,8.45176 -11.10833,11.78711 0.86659,-3.60422 7.34911,-8.46551 11.10824,-11.78234 z m 149.22379,5.4099 c -1.00569,2.60048 -2.56264,4.60207 -3.56677,7.20065 -3.04545,-1.32419 0.61824,-7.04893 3.56786,-7.2006 z m -85.59981,-3.57056 c -0.65006,5.26751 -3.30305,15.71974 -11.27745,15.863 4.07264,-4.95213 7.51588,-10.57804 11.27871,-15.86693 z m -177.9705,-21.30784 2.445664,0.1012 c -0.650307,5.56385 1.076611,8.93967 0.202916,14.70814 -2.068041,-3.84389 -1.896659,-9.75408 -2.648608,-14.80908 z m 188.35836,7.0425 c -2.70864,3.02106 -4.60724,6.92276 -8.52676,8.62831 1.04487,-4.83288 3.08589,-8.58448 8.52383,-8.63242 z m -7.33669,-0.30635 c -0.12723,3.84218 -2.57584,5.153 -4.38187,7.1667 -3.11284,-1.58106 0.50295,-7.81914 4.38066,-7.16651 z m 16.34327,-0.14232 c 2.92819,2.2023 -3.10706,7.46608 -6.86168,7.87957 1.29244,-3.70422 4.81,-4.98999 6.86342,-7.87753 z m -4.85402,-1.01675 c 0.63479,0.45907 1.28827,0.90466 2.41102,0.91701 -4.87599,4.35627 -7.42308,11.24701 -14.4372,13.2809 2.29595,-6.58617 8.25298,-9.2029 12.02319,-14.19701 z m 71.09671,-1.11618 c 1.32783,-0.16263 1.37161,0.82745 2.41182,0.91685 -1.95461,3.27234 -3.43634,7.05982 -7.67654,7.84553 1.09348,-3.62428 3.97096,-5.33895 5.26154,-8.7586 z m 13.82616,1.39115 c -0.01,-2.56828 2.20707,-2.71323 4.21284,-3.09169 1.07344,1.41664 1.57823,7.38357 -1.90303,6.45546 0.3229,-2.12537 -0.14751,-3.51879 -2.30371,-3.36349 z m -31.55682,-7.03674 c -1.89953,0.19148 -3.12413,-0.26144 -4.04282,-0.98503 0.87019,-1.8176 4.15912,-1.84696 4.04088,0.98329 z m 24.21325,-12.86449 c -3.56423,4.64945 -3.4997,13.23879 -8.83244,15.96482 0.82012,-4.37134 3.17711,-14.06566 8.82975,-15.96898 z M 64.152433,141.86173 c 1.32784,-0.1631 1.371941,0.82944 2.41263,0.91668 2.609553,15.62201 4.556119,31.87254 10.392857,44.53435 -9.612943,-7.15181 -8.686424,-33.0075 -12.805932,-45.44455 z m 87.438337,-1.24889 2.44572,0.10119 c -2.91324,7.34362 -6.4651,13.99528 -15.32109,14.87786 3.90518,-5.41042 10.15696,-8.26993 12.87026,-14.97615 z m -3.22798,-0.94986 c -2.32252,5.50769 -7.76805,14.79154 -16.20411,16.47378 5.41904,-5.47482 9.19557,-12.73538 16.20045,-16.47609 z m -13.99272,-16.92106 c 2.15858,1.31871 -1.44378,3.46328 -1.83495,4.8236 -2.15188,-1.31564 1.45016,-3.46219 1.83955,-4.81935 z m 27.11088,-3.76588 c -1.33318,6.51173 -6.80137,15.89666 -13.07825,19.87273 3.85102,-7.16907 8.42517,-13.56222 13.07456,-19.87382 z m 4.9562,-1.43181 c 0.69242,6.05394 -7.11406,17.12976 -12.36552,22.35178 3.44217,-8.18714 8.32974,-14.80278 12.36338,-22.34686 z m 133.77148,3.95125 c -1.0151,2.87406 -2.99619,4.69668 -5.94567,5.46873 0.44111,-3.51422 2.42031,-5.33512 5.94884,-5.47256 z m -126.29877,-6.90673 c 0.95437,-0.0861 1.44255,0.24253 1.59586,0.88382 -4.27646,7.30243 -7.17324,16.80826 -11.61869,24.01653 -3.6843,5.97289 -8.623,13.48515 -16.13592,14.84273 10.62279,-11.91028 17.58581,-24.52302 26.15861,-39.73727 z m 5.74449,-0.57381 2.4449,0.10169 c -8.17551,13.2708 -12.51008,30.71661 -25.30773,38.96282 -0.7797,-2.51523 8.06502,-11.41954 11.27849,-15.8629 3.17893,-8.46293 8.62975,-14.46636 11.58429,-23.19376 z m -48.03614,-3.63241 c 0.94783,5.57667 -6.28518,9.63523 -8.76472,14.33502 -0.31449,-4.89987 6.43942,-9.46512 8.76188,-14.3333 z m 57.99162,-0.0332 c -8.60885,14.219 -13.17583,32.83438 -27.04181,41.34014 8.85167,-13.10377 17.65072,-26.26484 24.59577,-41.44216 l 2.44888,0.10307 z m 11.68339,-6.04763 c 0.88409,5.03056 -3.11504,19.27664 -9.88575,21.63864 2.85209,-7.6818 7.56291,-13.35287 9.88078,-21.63581 z M 29.301933,96.313308 c 2.286466,0.24632 3.41434,1.56226 3.090672,4.212752 -2.568195,0.01 -2.713512,-2.203252 -3.090794,-4.210862 z M 2.4657633,93.555218 c 1.9802702,-0.2449 1.710848,1.56229 4.0427567,0.98503 0.657318,7.131542 1.3523969,17.496492 1.4266609,24.560472 C 2.9674756,114.2034 5.0851968,102.38941 2.4657393,93.557058 Z M 319.56887,107.60676 c -3.9756,4.13076 -8.27991,-3.47255 -14.60707,-2.24395 4.15752,-4.63478 9.72227,2.38739 14.60474,2.24759 z M 218.67733,98.494038 c 0.75574,4.868352 -3.79272,21.127352 -10.83656,24.865422 4.10126,-7.75726 6.86943,-16.96339 10.83921,-24.860452 z m -5.66696,-1.05429 2.44677,0.1012 c -2.76221,10.633922 -5.62947,21.151732 -12.57061,27.243102 3.07253,-9.43874 9.08306,-15.68381 10.11901,-27.346312 z m 111.52399,8.733882 c -5.63694,2.03683 -8.96293,-4.81005 -16.16888,-3.94104 3.19636,-4.648122 12.58456,1.52476 16.1728,3.94104 z m 46.06337,-7.876112 c -0.0847,3.036132 -3.72639,2.198422 -6.62448,2.173362 0.5574,-2.525112 4.78311,-1.052882 6.62547,-2.173552 z m -15.52983,0.16878 c 1.17372,0.94102 6.33925,-1.02631 8.25567,-2.10524 3.14779,0.8711 -2.82869,2.8884 -0.13664,3.26099 -8.87552,2.263532 -15.30299,-0.99156 -23.57751,-2.61641 2.73214,-2.99632 6.53228,-4.831745 11.6522,-5.23048 -1.90763,2.47263 -6.14934,2.40427 -7.57539,5.40069 5.07963,-0.72566 7.48054,-4.370454 12.46708,-5.196544 -0.29549,3.371054 -4.41992,2.579534 -5.1296,5.502524 3.34372,-0.0568 4.87065,-2.09408 7.47449,-2.95586 2.14281,1.55124 -2.57021,2.81001 -3.42193,3.94108 z M 3.9957262,76.471558 C 8.701186,77.629435 3.5246497,87.881116 8.3773612,88.904822 6.3828554,90.264768 5.1544825,86.657893 2.6355333,89.482559 2.9471417,84.007501 2.8484723,78.996198 3.995556,76.471408 Z M 336.42115,95.238648 c 1.35777,-3.924306 5.4384,-4.883391 9.23954,-6.147643 -2.23387,2.97331 -4.31703,6.100833 -9.24456,6.147353 z m 7.71054,-8.66145 c -3.44433,2.376321 -7.81375,7.76921 -12.49936,6.011516 3.37917,-2.44507 8.34576,-7.185617 12.49647,-6.011516 z m -4.78584,-2.65063 c -3.15542,3.672397 -7.28642,6.282935 -12.56929,7.643406 2.9022,-3.945241 7.49381,-6.050757 12.56446,-7.643694 z m -58.60009,-4.893594 c 1.32421,-0.18627 1.36959,0.827741 2.41184,0.916855 -3.0925,2.603596 -2.587,9.118347 -7.74653,9.477228 0.59949,-4.738758 3.99734,-6.444826 5.32987,-10.394408 z m 8.18347,-0.475714 c -2.02482,4.617534 -3.13202,10.231929 -8.62863,11.07328 1.62379,-5.05736 4.08276,-9.200318 8.6255,-11.073418 z m 85.64343,2.756067 c 1.98311,0.788601 5.65258,0.0284 5.60474,2.682741 -1.98746,-0.789977 -5.66057,-0.0284 -5.60871,-2.682928 z m -79.05191,-4.115775 c -0.2657,3.858679 -3.45876,11.453764 -9.47679,11.856101 2.35968,-4.816526 5.41415,-8.880952 9.47286,-11.856289 z m -19.56074,-0.816058 3.26175,0.136635 c -2.98285,6.702097 -4.6928,14.783591 -12.90945,15.795902 2.95151,-5.596471 8.40903,-8.469309 9.65234,-15.931636 z m -4.08475,-0.170196 c 1.64924,3.565645 -5.29111,16.10292 -10.4286,15.083142 3.86237,-4.613656 7.16118,-9.837335 10.43157,-15.083005 z m 29.38994,0.409417 c -1.80763,5.134941 -4.00874,9.846129 -8.66065,11.88925 2.32031,-4.577731 3.78621,-10.080109 8.6598,-11.889338 z m -75.31734,4.20958 c 3.40518,-1.5415 6.21069,4.196708 9.57853,5.298895 -0.86357,-2.615792 -6.5659,-7.53703 -9.34054,-11.005431 4.59129,-2.357421 9.80524,7.484505 12.56716,11.957273 4.39277,0.92461 6.59781,3.861557 10.3955,5.332845 -8.09434,2.569221 -18.95642,-5.430002 -23.20331,-11.583582 z M 11.094391,62.884233 C 16.16292,78.083346 22.11531,92.468679 28.892768,106.09486 21.318995,93.199548 11.525933,82.345114 11.094589,62.881256 Z m 5.774775,-1.393044 c 5.2403,7.203918 7.774407,21.066352 10.256957,28.194478 -4.008623,-1.79996 -3.662591,-7.606105 -6.0796,-10.87031 -1.679787,1.273809 -2.950709,2.163056 -4.076513,-0.169734 -0.719286,-2.486475 1.877252,-1.36869 3.329784,-1.494492 -1.697757,-4.706885 -4.858735,-8.073076 -3.429686,-15.659329 z M 252.11013,80.286882 c 1.19169,2.339308 3.09949,-4.276478 4.95898,-1.425993 0.0776,3.491368 -3.12355,3.422581 -4.31482,5.536465 4.91171,3.324248 4.9499,-5.964245 9.24145,-6.147489 -0.38531,4.127835 -3.26509,5.541344 -4.45049,8.797556 4.81884,1.900331 4.16101,-8.957783 9.37614,-9.408429 -2.06004,4.578806 -3.88567,9.411781 -7.06653,12.771117 -13.3081,-1.085925 -21.16354,-7.186043 -26.29205,-15.797278 5.67949,4.318921 11.34257,8.30633 16.78055,8.867756 0.76099,-3.590326 -4.25835,-8.612323 -6.86054,-11.719316 2.93984,-3.434265 11.02756,4.506379 8.62264,8.526174 z m 76.49452,-13.143145 c 4.6269,2.152461 -2.04594,5.345553 -2.75181,7.235403 -2.46686,-2.745048 2.88413,-4.220501 2.75493,-7.235266 z M 24.173621,43.011939 c 5.234367,3.025499 14.211081,2.607327 17.665121,7.269725 -2.668046,0.351747 -3.769809,-0.71451 -5.673001,-1.053397 2.273274,6.533744 10.491355,7.595615 11.616166,15.18422 -3.480283,1.101386 -9.424077,-1.584319 -12.942186,-2.989985 0.407061,3.559779 8.919371,6.42231 10.972308,11.074544 -0.642398,3.366378 -6.454513,2.424693 -9.03647,1.256647 -0.3517,5.026914 5.02216,4.788869 5.333592,9.205472 -3.855394,-2.464647 -8.916104,-3.818776 -8.560306,-10.156513 3.043634,-0.25861 3.754557,-0.458115 8.186324,-0.47609 -2.475052,-6.672364 -14.473416,-8.549716 -14.061981,-15.28625 4.585809,2.313639 10.579609,3.333842 15.286005,5.537803 C 41.478555,55.5704 32.224499,48.936847 23.222505,46.236903 23.181375,44.769966 24.290747,44.56062 24.1747,43.010852 Z M 7.2578171,37.406159 C 10.431423,46.746653 6.1700909,63.082513 6.5771815,73.311878 1.3114973,65.983483 6.2734687,49.706766 7.1557395,39.851983 7.2025445,39.324646 5.982814,38.264299 7.2581438,37.406111 Z M 239.30427,54.434789 c -0.7477,-3.11183 3.61141,-7.988587 6.93066,-9.511265 -3.84904,-3.202506 -9.04824,5.77272 -12.60353,8.458291 -0.87814,-5.784965 8.34147,-7.970903 10.36165,-13.452155 3.86535,-1.511284 8.10045,4.864323 3.09192,4.212788 0.32292,1.015007 0.97308,1.718171 2.3787,1.733063 -0.76552,2.292362 -2.01409,4.061498 -4.28078,4.720599 1.95149,-3.265434 -5.11508,1.951676 -5.88065,3.838579 z M 43.740478,43.828522 c -0.629764,0.735881 -1.533882,1.172443 -2.513729,1.529581 C 35.145456,37.705853 21.049913,33.78477 13.099505,34.384443 l 0.136397,-3.261983 c 12.489979,-0.990329 25.494581,4.216285 30.504656,12.706676 z M 242.43326,38.232291 c -6.4998,6.286299 -12.64314,12.96056 -20.349,17.93561 4.96328,-7.953792 10.97773,-14.766765 20.35293,-17.935374 z M 207.09761,23.691612 c 0.24538,3.95933 -4.0945,2.936569 -5.91048,4.653464 -16.38501,11.164757 -28.19602,27.301728 -40.96902,42.391863 11.54454,-20.122013 24.68448,-38.505482 46.88263,-47.045421 z m 16.64928,-7.473257 c -1.09283,3.641955 -5.73126,3.428543 -9.95394,3.667438 2.14534,-2.50478 5.55752,-3.616519 9.95559,-3.667484 z m 213.56838,9.72685 -4.88937,-0.202822 c 0.47088,-2.573758 4.5069,-2.901773 4.88754,0.203295 z m -82.88864,-9.992598 c 2.93221,0.861025 -1.88928,4.532054 0.61891,4.924792 -1.59265,2.40994 -2.40016,-2.421997 -2.27487,-4.179315 0.94476,0.172564 1.46656,-0.123863 1.67047,-0.746044 z"
     inkscape:connector-curvature="0" /></svg>